<?xml version="1.0" encoding="UTF-8" standalone="no"?>
<!-- Created with Inkscape (http://www.inkscape.org/) -->

<svg
   xmlns:dc="http://purl.org/dc/elements/1.1/"
   xmlns:cc="http://creativecommons.org/ns#"
   xmlns:rdf="http://www.w3.org/1999/02/22-rdf-syntax-ns#"
   xmlns:svg="http://www.w3.org/2000/svg"
   xmlns="http://www.w3.org/2000/svg"
   version="1.1"
   width="32"
   height="32"
   id="svg2">
  <defs
     id="defs4">
 <style
   type="text/css"
   id="style2989" />

  
 <style
   type="text/css"
   id="style3419" />

  </defs>
  <metadata
     id="metadata7">
    <rdf:RDF>
      <cc:Work
         rdf:about="">
        <dc:format>image/svg+xml</dc:format>
        <dc:type
           rdf:resource="http://purl.org/dc/dcmitype/StillImage" />
        <dc:title></dc:title>
      </cc:Work>
    </rdf:RDF>
  </metadata>
  <g
     transform="translate(0,-1020.3622)"
     id="layer1">
    <g
       transform="matrix(96.330382,0,0,96.877215,-0.05396092,1020.2197)"
       id="g3438"
       style="fill-rule:evenodd">
      <g
         id="Layer_x0020_1-1">
  <metadata
   id="CorelCorpID_0Corel-Layer-7" />

  <rect
   width="0.328242"
   height="0.32638901"
   rx="0.0554213"
   ry="0.0554213"
   x="0.00252867"
   y="0.00342836"
   id="rect3423"
   style="fill:#9e0000;stroke:#eb1e25;stroke-width:0.00393701" />

  <path
   d="m 0.318055,0.0582913 0,0.0196102 C 0.31280697,0.07624402 0.3096928,0.0437401 0.2533109,0.0437401 l -0.168626,0 c -0.0632283,0 -0.0687795,0.0319488 -0.0722244,0.032622 l 0,-0.0180709 c 0,-0.023378 0.0208386,-0.0425079 0.046315,-0.0425079 l 0.212969,0 c 0.0254724,0 0.046311,0.0191299 0.046311,0.0425079 z"
   id="path3425"
   style="fill:#e60000" />

  <path
   d="m 0.318055,0.273118 0,-0.0179882 C 0.312787,0.2567868 0.2962125,0.2727282 0.2670589,0.2727282 l -0.205106,0 c -0.0340591,0 -0.0470433,-0.0153898 -0.0505,-0.0160591 l 0,0.0164488 c 0,0.023378 0.0209094,0.0425079 0.0464646,0.0425079 l 0.213673,0 c 0.0255551,0 0.0464646,-0.019126 0.0464646,-0.0425079 z"
   id="path3427"
   style="fill:#690000" />

  <path
   d="M 0.145059,0.0789764 C 0.1584881,0.0547559 0.14327947,0.0174134 0.1007834,0.0250591 0.0582873,0.03270477 0.059559,0.0790237 0.0791102,0.0943229 0.0986614,0.1096221 0.1157637,0.08547644 0.1301063,0.1189686 0.13131102,0.1217875 0.0905827,0.135571 0.1041811,0.1933347 0.10465748,0.19534257 0.076563,0.2188308 0.076563,0.2188308 c 0,0 -0.0304843,-0.007224 -0.0535433,0.0178465 -0.023063,0.0250709 -0.0131732,0.0433425 -0.0025512,0.0514173 0.010626,0.008075 0.029748,0.0165709 0.0543937,-0.002976 0.0246457,-0.0195472 0.0173583,-0.043252 0.0195472,-0.0484409 0.002185,-0.005189 0.0152953,-0.0212441 0.0250669,-0.0225197 0.009776,-0.00128 0.002976,0.004673 0.044622,0.004673 0.0416457,0 0.087811,0.005165 0.119587,-0.0131811 C 0.3154648,0.1872995 0.3216892,0.1399216 0.3117837,0.1233034 0.3015868,0.1061892 0.2908979,0.1064609 0.2518034,0.1063585 0.2125514,0.10625614 0.2375357,0.10620102 0.2024333,0.10629944 0.1673309,0.10639787 0.1519727,0.11034244 0.1506971,0.10907144 0.140642,0.09904784 0.1412361,0.08560684 0.1450591,0.07897694 z"
   id="path3429"
   style="fill:#000000;stroke:#eb1e25;stroke-width:0.00277953" />

  <path
   d="m 0.165035,0.170362 c -0.001059,0.004472 -0.004339,0.007839 -0.00985,0.0101024 -0.004244,0.001807 -0.008909,0.002713 -0.0139843,0.002713 -0.009043,0 -0.0167008,-0.002362 -0.0229724,-0.007087 l 0.004394,-0.00422 c 0.005976,0.004472 0.0125039,0.006709 0.0195906,0.006709 0.003516,0 0.006768,-5.5118e-4 0.00974,-0.001657 0.003965,-0.001457 0.006303,-0.003693 0.007016,-0.006709 4.6457e-4,-0.001961 -1.5748e-4,-0.003583 -0.001866,-0.004862 -0.001709,-0.00128 -0.004961,-0.002075 -0.009764,-0.002374 -0.007319,-5.0394e-4 -0.0113858,-8.3071e-4 -0.0122047,-9.8031e-4 -0.004398,-7.5197e-4 -0.007283,-0.002362 -0.008657,-0.004823 -8.1496e-4,-0.001457 -0.001016,-0.003043 -6.1417e-4,-0.004752 9.1732e-4,-0.003866 0.003843,-0.006783 0.00878,-0.00874 0.00372,-0.001508 0.007772,-0.002264 0.0121457,-0.002264 0.008039,0 0.0150669,0.002161 0.0210787,0.006484 l -0.004449,0.004146 c -0.004941,-0.003972 -0.0108268,-0.005957 -0.0176614,-0.005957 -0.002665,0 -0.005244,4.0157e-4 -0.007752,0.001209 -0.003484,0.001154 -0.005488,0.002811 -0.006,0.004972 -5.5906e-4,0.002362 0.001091,0.003996 0.004949,0.004902 0.001287,2.9921e-4 0.004154,6.0236e-4 0.008606,9.0157e-4 l 0.006748,4.5276e-4 c 0.004555,3.0315e-4 0.008039,0.00161 0.0104567,0.003921 0.002252,0.002161 0.003008,0.004799 0.002272,0.007913 z m 0.074626,-0.0280394 -0.0247913,0.0397992 -0.004299,0 -0.004858,-0.0320354 -0.0198622,0.0320354 -0.004374,0 -0.006039,-0.0397992 0.005803,0 0.004504,0.0306772 0.0192402,-0.0306772 0.00528,0 0.004744,0.0306024 0.019,-0.0306024 0.005654,0 z m 0.003311,0.0397992 -0.005957,0 0.009468,-0.0400276 0.005957,0 -0.009468,0.0400276 z m 0.0565669,-0.0352008 -0.0199016,0 -0.008327,0.0352008 -0.005953,0 0.008327,-0.0352008 -0.0198268,0 0.001087,-0.004598 0.0456811,0 -0.001087,0.004598 z"
   id="path3431"
   style="fill:#fefefe;fill-rule:nonzero;stroke:#fefefe;stroke-width:0.0019685" />

 </g>
    </g>
  </g>
</svg>
